<svg width="1440" height="609" viewBox="0 0 1440 609" fill="none" xmlns="http://www.w3.org/2000/svg">
<path d="M710 237.622C453 112.483 148.219 40.1444 -3 49.2721V608.5H1440V427.082C1271.94 427.082 944.752 351.928 710 237.622Z" fill="#1B75BB"/>
<circle cx="200" cy="66.5" r="15.5" fill="#DFDFDF" stroke="white" stroke-width="9"/>
<circle cx="542" cy="165.5" r="15.5" fill="#DFDFDF" stroke="white" stroke-width="9"/>
<circle cx="884" cy="309.5" r="15.5" fill="#DFDFDF" stroke="white" stroke-width="9"/>
<circle cx="1226" cy="402.5" r="15.5" fill="#DFDFDF" stroke="white" stroke-width="9"/>
<path d="M150.464 21.5V6.8H152.564V21.5H150.464ZM160.493 21.626C159.373 21.626 158.505 21.325 157.889 20.723C157.273 20.121 156.965 19.26 156.965 18.14V7.934H158.981V18.056C158.981 18.658 159.128 19.12 159.422 19.442C159.73 19.764 160.164 19.925 160.724 19.925C161.354 19.925 161.879 19.75 162.299 19.4L162.929 20.849C162.621 21.115 162.25 21.311 161.816 21.437C161.396 21.563 160.955 21.626 160.493 21.626ZM155.075 12.029V10.37H162.173V12.029H155.075ZM169.953 21.626C168.763 21.626 167.713 21.381 166.803 20.891C165.907 20.401 165.207 19.729 164.703 18.875C164.213 18.021 163.968 17.041 163.968 15.935C163.968 14.829 164.206 13.849 164.682 12.995C165.172 12.141 165.837 11.476 166.677 11C167.531 10.51 168.49 10.265 169.554 10.265C170.632 10.265 171.584 10.503 172.41 10.979C173.236 11.455 173.88 12.127 174.342 12.995C174.818 13.849 175.056 14.85 175.056 15.998C175.056 16.082 175.049 16.18 175.035 16.292C175.035 16.404 175.028 16.509 175.014 16.607H165.543V15.158H173.964L173.145 15.662C173.159 14.948 173.012 14.311 172.704 13.751C172.396 13.191 171.969 12.757 171.423 12.449C170.891 12.127 170.268 11.966 169.554 11.966C168.854 11.966 168.231 12.127 167.685 12.449C167.139 12.757 166.712 13.198 166.404 13.772C166.096 14.332 165.942 14.976 165.942 15.704V16.04C165.942 16.782 166.11 17.447 166.446 18.035C166.796 18.609 167.279 19.057 167.895 19.379C168.511 19.701 169.218 19.862 170.016 19.862C170.674 19.862 171.269 19.75 171.801 19.526C172.347 19.302 172.823 18.966 173.229 18.518L174.342 19.82C173.838 20.408 173.208 20.856 172.452 21.164C171.71 21.472 170.877 21.626 169.953 21.626ZM177.855 21.5V10.37H179.787V13.394L179.598 12.638C179.906 11.868 180.424 11.28 181.152 10.874C181.88 10.468 182.776 10.265 183.84 10.265V12.218C183.756 12.204 183.672 12.197 183.588 12.197C183.518 12.197 183.448 12.197 183.378 12.197C182.3 12.197 181.446 12.519 180.816 13.163C180.186 13.807 179.871 14.738 179.871 15.956V21.5H177.855ZM192.414 21.5V19.148L192.309 18.707V14.696C192.309 13.842 192.057 13.184 191.553 12.722C191.063 12.246 190.321 12.008 189.327 12.008C188.669 12.008 188.025 12.12 187.395 12.344C186.765 12.554 186.233 12.841 185.799 13.205L184.959 11.693C185.533 11.231 186.219 10.881 187.017 10.643C187.829 10.391 188.676 10.265 189.558 10.265C191.084 10.265 192.26 10.636 193.086 11.378C193.912 12.12 194.325 13.254 194.325 14.78V21.5H192.414ZM188.76 21.626C187.934 21.626 187.206 21.486 186.576 21.206C185.96 20.926 185.484 20.541 185.148 20.051C184.812 19.547 184.644 18.98 184.644 18.35C184.644 17.748 184.784 17.202 185.064 16.712C185.358 16.222 185.827 15.83 186.471 15.536C187.129 15.242 188.011 15.095 189.117 15.095H192.645V16.544H189.201C188.193 16.544 187.514 16.712 187.164 17.048C186.814 17.384 186.639 17.79 186.639 18.266C186.639 18.812 186.856 19.253 187.29 19.589C187.724 19.911 188.326 20.072 189.096 20.072C189.852 20.072 190.51 19.904 191.07 19.568C191.644 19.232 192.057 18.742 192.309 18.098L192.708 19.484C192.442 20.142 191.973 20.667 191.301 21.059C190.629 21.437 189.782 21.626 188.76 21.626ZM201.878 21.626C200.758 21.626 199.89 21.325 199.274 20.723C198.658 20.121 198.35 19.26 198.35 18.14V7.934H200.366V18.056C200.366 18.658 200.513 19.12 200.807 19.442C201.115 19.764 201.549 19.925 202.109 19.925C202.739 19.925 203.264 19.75 203.684 19.4L204.314 20.849C204.006 21.115 203.635 21.311 203.201 21.437C202.781 21.563 202.34 21.626 201.878 21.626ZM196.46 12.029V10.37H203.558V12.029H196.46ZM206.751 21.5V10.37H208.767V21.5H206.751ZM207.759 8.228C207.367 8.228 207.038 8.102 206.772 7.85C206.52 7.598 206.394 7.29 206.394 6.926C206.394 6.548 206.52 6.233 206.772 5.981C207.038 5.729 207.367 5.603 207.759 5.603C208.151 5.603 208.473 5.729 208.725 5.981C208.991 6.219 209.124 6.52 209.124 6.884C209.124 7.262 208.998 7.584 208.746 7.85C208.494 8.102 208.165 8.228 207.759 8.228ZM217.383 21.626C216.263 21.626 215.269 21.381 214.401 20.891C213.533 20.401 212.847 19.729 212.343 18.875C211.839 18.007 211.587 17.027 211.587 15.935C211.587 14.829 211.839 13.849 212.343 12.995C212.847 12.141 213.533 11.476 214.401 11C215.269 10.51 216.263 10.265 217.383 10.265C218.489 10.265 219.476 10.51 220.344 11C221.226 11.476 221.912 12.141 222.402 12.995C222.906 13.835 223.158 14.815 223.158 15.935C223.158 17.041 222.906 18.021 222.402 18.875C221.912 19.729 221.226 20.401 220.344 20.891C219.476 21.381 218.489 21.626 217.383 21.626ZM217.383 19.862C218.097 19.862 218.734 19.701 219.294 19.379C219.868 19.057 220.316 18.602 220.638 18.014C220.96 17.412 221.121 16.719 221.121 15.935C221.121 15.137 220.96 14.451 220.638 13.877C220.316 13.289 219.868 12.834 219.294 12.512C218.734 12.19 218.097 12.029 217.383 12.029C216.669 12.029 216.032 12.19 215.472 12.512C214.912 12.834 214.464 13.289 214.128 13.877C213.792 14.451 213.624 15.137 213.624 15.935C213.624 16.719 213.792 17.412 214.128 18.014C214.464 18.602 214.912 19.057 215.472 19.379C216.032 19.701 216.669 19.862 217.383 19.862ZM231.889 10.265C232.799 10.265 233.597 10.44 234.283 10.79C234.983 11.14 235.529 11.672 235.921 12.386C236.313 13.1 236.509 14.003 236.509 15.095V21.5H234.493V15.326C234.493 14.248 234.227 13.436 233.695 12.89C233.177 12.344 232.442 12.071 231.49 12.071C230.776 12.071 230.153 12.211 229.621 12.491C229.089 12.771 228.676 13.184 228.382 13.73C228.102 14.276 227.962 14.955 227.962 15.767V21.5H225.946V10.37H227.878V13.373L227.563 12.575C227.927 11.847 228.487 11.28 229.243 10.874C229.999 10.468 230.881 10.265 231.889 10.265ZM247.455 21.5V7.64L248.358 8.627H244.137V6.8H249.534V21.5H247.455Z" fill="#404040"/>
<path d="M490.321 121.5V106.8H492.421V121.5H490.321ZM500.35 121.626C499.23 121.626 498.362 121.325 497.746 120.723C497.13 120.121 496.822 119.26 496.822 118.14V107.934H498.838V118.056C498.838 118.658 498.985 119.12 499.279 119.442C499.587 119.764 500.021 119.925 500.581 119.925C501.211 119.925 501.736 119.75 502.156 119.4L502.786 120.849C502.478 121.115 502.107 121.311 501.673 121.437C501.253 121.563 500.812 121.626 500.35 121.626ZM494.932 112.029V110.37H502.03V112.029H494.932ZM509.81 121.626C508.62 121.626 507.57 121.381 506.66 120.891C505.764 120.401 505.064 119.729 504.56 118.875C504.07 118.021 503.825 117.041 503.825 115.935C503.825 114.829 504.063 113.849 504.539 112.995C505.029 112.141 505.694 111.476 506.534 111C507.388 110.51 508.347 110.265 509.411 110.265C510.489 110.265 511.441 110.503 512.267 110.979C513.093 111.455 513.737 112.127 514.199 112.995C514.675 113.849 514.913 114.85 514.913 115.998C514.913 116.082 514.906 116.18 514.892 116.292C514.892 116.404 514.885 116.509 514.871 116.607H505.4V115.158H513.821L513.002 115.662C513.016 114.948 512.869 114.311 512.561 113.751C512.253 113.191 511.826 112.757 511.28 112.449C510.748 112.127 510.125 111.966 509.411 111.966C508.711 111.966 508.088 112.127 507.542 112.449C506.996 112.757 506.569 113.198 506.261 113.772C505.953 114.332 505.799 114.976 505.799 115.704V116.04C505.799 116.782 505.967 117.447 506.303 118.035C506.653 118.609 507.136 119.057 507.752 119.379C508.368 119.701 509.075 119.862 509.873 119.862C510.531 119.862 511.126 119.75 511.658 119.526C512.204 119.302 512.68 118.966 513.086 118.518L514.199 119.82C513.695 120.408 513.065 120.856 512.309 121.164C511.567 121.472 510.734 121.626 509.81 121.626ZM517.712 121.5V110.37H519.644V113.394L519.455 112.638C519.763 111.868 520.281 111.28 521.009 110.874C521.737 110.468 522.633 110.265 523.697 110.265V112.218C523.613 112.204 523.529 112.197 523.445 112.197C523.375 112.197 523.305 112.197 523.235 112.197C522.157 112.197 521.303 112.519 520.673 113.163C520.043 113.807 519.728 114.738 519.728 115.956V121.5H517.712ZM532.271 121.5V119.148L532.166 118.707V114.696C532.166 113.842 531.914 113.184 531.41 112.722C530.92 112.246 530.178 112.008 529.184 112.008C528.526 112.008 527.882 112.12 527.252 112.344C526.622 112.554 526.09 112.841 525.656 113.205L524.816 111.693C525.39 111.231 526.076 110.881 526.874 110.643C527.686 110.391 528.533 110.265 529.415 110.265C530.941 110.265 532.117 110.636 532.943 111.378C533.769 112.12 534.182 113.254 534.182 114.78V121.5H532.271ZM528.617 121.626C527.791 121.626 527.063 121.486 526.433 121.206C525.817 120.926 525.341 120.541 525.005 120.051C524.669 119.547 524.501 118.98 524.501 118.35C524.501 117.748 524.641 117.202 524.921 116.712C525.215 116.222 525.684 115.83 526.328 115.536C526.986 115.242 527.868 115.095 528.974 115.095H532.502V116.544H529.058C528.05 116.544 527.371 116.712 527.021 117.048C526.671 117.384 526.496 117.79 526.496 118.266C526.496 118.812 526.713 119.253 527.147 119.589C527.581 119.911 528.183 120.072 528.953 120.072C529.709 120.072 530.367 119.904 530.927 119.568C531.501 119.232 531.914 118.742 532.166 118.098L532.565 119.484C532.299 120.142 531.83 120.667 531.158 121.059C530.486 121.437 529.639 121.626 528.617 121.626ZM541.734 121.626C540.614 121.626 539.746 121.325 539.13 120.723C538.514 120.121 538.206 119.26 538.206 118.14V107.934H540.222V118.056C540.222 118.658 540.369 119.12 540.663 119.442C540.971 119.764 541.405 119.925 541.965 119.925C542.595 119.925 543.12 119.75 543.54 119.4L544.17 120.849C543.862 121.115 543.491 121.311 543.057 121.437C542.637 121.563 542.196 121.626 541.734 121.626ZM536.316 112.029V110.37H543.414V112.029H536.316ZM546.608 121.5V110.37H548.624V121.5H546.608ZM547.616 108.228C547.224 108.228 546.895 108.102 546.629 107.85C546.377 107.598 546.251 107.29 546.251 106.926C546.251 106.548 546.377 106.233 546.629 105.981C546.895 105.729 547.224 105.603 547.616 105.603C548.008 105.603 548.33 105.729 548.582 105.981C548.848 106.219 548.981 106.52 548.981 106.884C548.981 107.262 548.855 107.584 548.603 107.85C548.351 108.102 548.022 108.228 547.616 108.228ZM557.24 121.626C556.12 121.626 555.126 121.381 554.258 120.891C553.39 120.401 552.704 119.729 552.2 118.875C551.696 118.007 551.444 117.027 551.444 115.935C551.444 114.829 551.696 113.849 552.2 112.995C552.704 112.141 553.39 111.476 554.258 111C555.126 110.51 556.12 110.265 557.24 110.265C558.346 110.265 559.333 110.51 560.201 111C561.083 111.476 561.769 112.141 562.259 112.995C562.763 113.835 563.015 114.815 563.015 115.935C563.015 117.041 562.763 118.021 562.259 118.875C561.769 119.729 561.083 120.401 560.201 120.891C559.333 121.381 558.346 121.626 557.24 121.626ZM557.24 119.862C557.954 119.862 558.591 119.701 559.151 119.379C559.725 119.057 560.173 118.602 560.495 118.014C560.817 117.412 560.978 116.719 560.978 115.935C560.978 115.137 560.817 114.451 560.495 113.877C560.173 113.289 559.725 112.834 559.151 112.512C558.591 112.19 557.954 112.029 557.24 112.029C556.526 112.029 555.889 112.19 555.329 112.512C554.769 112.834 554.321 113.289 553.985 113.877C553.649 114.451 553.481 115.137 553.481 115.935C553.481 116.719 553.649 117.412 553.985 118.014C554.321 118.602 554.769 119.057 555.329 119.379C555.889 119.701 556.526 119.862 557.24 119.862ZM571.746 110.265C572.656 110.265 573.454 110.44 574.14 110.79C574.84 111.14 575.386 111.672 575.778 112.386C576.17 113.1 576.366 114.003 576.366 115.095V121.5H574.35V115.326C574.35 114.248 574.084 113.436 573.552 112.89C573.034 112.344 572.299 112.071 571.347 112.071C570.633 112.071 570.01 112.211 569.478 112.491C568.946 112.771 568.533 113.184 568.239 113.73C567.959 114.276 567.819 114.955 567.819 115.767V121.5H565.803V110.37H567.735V113.373L567.42 112.575C567.784 111.847 568.344 111.28 569.1 110.874C569.856 110.468 570.738 110.265 571.746 110.265ZM584.603 121.5V120.072L590.588 114.297C591.12 113.793 591.512 113.352 591.764 112.974C592.03 112.582 592.205 112.225 592.289 111.903C592.387 111.567 592.436 111.245 592.436 110.937C592.436 110.181 592.17 109.586 591.638 109.152C591.106 108.718 590.329 108.501 589.307 108.501C588.523 108.501 587.816 108.634 587.186 108.9C586.556 109.152 586.01 109.551 585.548 110.097L584.12 108.858C584.68 108.144 585.429 107.598 586.367 107.22C587.319 106.828 588.362 106.632 589.496 106.632C590.518 106.632 591.407 106.8 592.163 107.136C592.919 107.458 593.5 107.927 593.906 108.543C594.326 109.159 594.536 109.887 594.536 110.727C594.536 111.203 594.473 111.672 594.347 112.134C594.221 112.596 593.983 113.086 593.633 113.604C593.283 114.122 592.779 114.703 592.121 115.347L586.787 120.492L586.283 119.673H595.166V121.5H584.603Z" fill="#404040"/>
<path d="M832.341 261.5V246.8H834.441V261.5H832.341ZM842.37 261.626C841.25 261.626 840.382 261.325 839.766 260.723C839.15 260.121 838.842 259.26 838.842 258.14V247.934H840.858V258.056C840.858 258.658 841.005 259.12 841.299 259.442C841.607 259.764 842.041 259.925 842.601 259.925C843.231 259.925 843.756 259.75 844.176 259.4L844.806 260.849C844.498 261.115 844.127 261.311 843.693 261.437C843.273 261.563 842.832 261.626 842.37 261.626ZM836.952 252.029V250.37H844.05V252.029H836.952ZM851.83 261.626C850.64 261.626 849.59 261.381 848.68 260.891C847.784 260.401 847.084 259.729 846.58 258.875C846.09 258.021 845.845 257.041 845.845 255.935C845.845 254.829 846.083 253.849 846.559 252.995C847.049 252.141 847.714 251.476 848.554 251C849.408 250.51 850.367 250.265 851.431 250.265C852.509 250.265 853.461 250.503 854.287 250.979C855.113 251.455 855.757 252.127 856.219 252.995C856.695 253.849 856.933 254.85 856.933 255.998C856.933 256.082 856.926 256.18 856.912 256.292C856.912 256.404 856.905 256.509 856.891 256.607H847.42V255.158H855.841L855.022 255.662C855.036 254.948 854.889 254.311 854.581 253.751C854.273 253.191 853.846 252.757 853.3 252.449C852.768 252.127 852.145 251.966 851.431 251.966C850.731 251.966 850.108 252.127 849.562 252.449C849.016 252.757 848.589 253.198 848.281 253.772C847.973 254.332 847.819 254.976 847.819 255.704V256.04C847.819 256.782 847.987 257.447 848.323 258.035C848.673 258.609 849.156 259.057 849.772 259.379C850.388 259.701 851.095 259.862 851.893 259.862C852.551 259.862 853.146 259.75 853.678 259.526C854.224 259.302 854.7 258.966 855.106 258.518L856.219 259.82C855.715 260.408 855.085 260.856 854.329 261.164C853.587 261.472 852.754 261.626 851.83 261.626ZM859.733 261.5V250.37H861.665V253.394L861.476 252.638C861.784 251.868 862.302 251.28 863.03 250.874C863.758 250.468 864.654 250.265 865.718 250.265V252.218C865.634 252.204 865.55 252.197 865.466 252.197C865.396 252.197 865.326 252.197 865.256 252.197C864.178 252.197 863.324 252.519 862.694 253.163C862.064 253.807 861.749 254.738 861.749 255.956V261.5H859.733ZM874.291 261.5V259.148L874.186 258.707V254.696C874.186 253.842 873.934 253.184 873.43 252.722C872.94 252.246 872.198 252.008 871.204 252.008C870.546 252.008 869.902 252.12 869.272 252.344C868.642 252.554 868.11 252.841 867.676 253.205L866.836 251.693C867.41 251.231 868.096 250.881 868.894 250.643C869.706 250.391 870.553 250.265 871.435 250.265C872.961 250.265 874.137 250.636 874.963 251.378C875.789 252.12 876.202 253.254 876.202 254.78V261.5H874.291ZM870.637 261.626C869.811 261.626 869.083 261.486 868.453 261.206C867.837 260.926 867.361 260.541 867.025 260.051C866.689 259.547 866.521 258.98 866.521 258.35C866.521 257.748 866.661 257.202 866.941 256.712C867.235 256.222 867.704 255.83 868.348 255.536C869.006 255.242 869.888 255.095 870.994 255.095H874.522V256.544H871.078C870.07 256.544 869.391 256.712 869.041 257.048C868.691 257.384 868.516 257.79 868.516 258.266C868.516 258.812 868.733 259.253 869.167 259.589C869.601 259.911 870.203 260.072 870.973 260.072C871.729 260.072 872.387 259.904 872.947 259.568C873.521 259.232 873.934 258.742 874.186 258.098L874.585 259.484C874.319 260.142 873.85 260.667 873.178 261.059C872.506 261.437 871.659 261.626 870.637 261.626ZM883.755 261.626C882.635 261.626 881.767 261.325 881.151 260.723C880.535 260.121 880.227 259.26 880.227 258.14V247.934H882.243V258.056C882.243 258.658 882.39 259.12 882.684 259.442C882.992 259.764 883.426 259.925 883.986 259.925C884.616 259.925 885.141 259.75 885.561 259.4L886.191 260.849C885.883 261.115 885.512 261.311 885.078 261.437C884.658 261.563 884.217 261.626 883.755 261.626ZM878.337 252.029V250.37H885.435V252.029H878.337ZM888.628 261.5V250.37H890.644V261.5H888.628ZM889.636 248.228C889.244 248.228 888.915 248.102 888.649 247.85C888.397 247.598 888.271 247.29 888.271 246.926C888.271 246.548 888.397 246.233 888.649 245.981C888.915 245.729 889.244 245.603 889.636 245.603C890.028 245.603 890.35 245.729 890.602 245.981C890.868 246.219 891.001 246.52 891.001 246.884C891.001 247.262 890.875 247.584 890.623 247.85C890.371 248.102 890.042 248.228 889.636 248.228ZM899.261 261.626C898.141 261.626 897.147 261.381 896.279 260.891C895.411 260.401 894.725 259.729 894.221 258.875C893.717 258.007 893.465 257.027 893.465 255.935C893.465 254.829 893.717 253.849 894.221 252.995C894.725 252.141 895.411 251.476 896.279 251C897.147 250.51 898.141 250.265 899.261 250.265C900.367 250.265 901.354 250.51 902.222 251C903.104 251.476 903.79 252.141 904.28 252.995C904.784 253.835 905.036 254.815 905.036 255.935C905.036 257.041 904.784 258.021 904.28 258.875C903.79 259.729 903.104 260.401 902.222 260.891C901.354 261.381 900.367 261.626 899.261 261.626ZM899.261 259.862C899.975 259.862 900.612 259.701 901.172 259.379C901.746 259.057 902.194 258.602 902.516 258.014C902.838 257.412 902.999 256.719 902.999 255.935C902.999 255.137 902.838 254.451 902.516 253.877C902.194 253.289 901.746 252.834 901.172 252.512C900.612 252.19 899.975 252.029 899.261 252.029C898.547 252.029 897.91 252.19 897.35 252.512C896.79 252.834 896.342 253.289 896.006 253.877C895.67 254.451 895.502 255.137 895.502 255.935C895.502 256.719 895.67 257.412 896.006 258.014C896.342 258.602 896.79 259.057 897.35 259.379C897.91 259.701 898.547 259.862 899.261 259.862ZM913.767 250.265C914.677 250.265 915.475 250.44 916.161 250.79C916.861 251.14 917.407 251.672 917.799 252.386C918.191 253.1 918.387 254.003 918.387 255.095V261.5H916.371V255.326C916.371 254.248 916.105 253.436 915.573 252.89C915.055 252.344 914.32 252.071 913.368 252.071C912.654 252.071 912.031 252.211 911.499 252.491C910.967 252.771 910.554 253.184 910.26 253.73C909.98 254.276 909.84 254.955 909.84 255.767V261.5H907.824V250.37H909.756V253.373L909.441 252.575C909.805 251.847 910.365 251.28 911.121 250.874C911.877 250.468 912.759 250.265 913.767 250.265ZM931.348 261.668C930.312 261.668 929.304 261.507 928.324 261.185C927.358 260.863 926.567 260.429 925.951 259.883L926.917 258.224C927.407 258.686 928.044 259.064 928.828 259.358C929.612 259.652 930.452 259.799 931.348 259.799C932.44 259.799 933.287 259.568 933.889 259.106C934.505 258.63 934.813 257.993 934.813 257.195C934.813 256.425 934.519 255.809 933.931 255.347C933.357 254.871 932.44 254.633 931.18 254.633H930.004V253.163L934.372 247.787L934.666 248.627H926.623V246.8H936.325V248.228L931.978 253.583L930.886 252.932H931.579C933.357 252.932 934.687 253.331 935.569 254.129C936.465 254.927 936.913 255.942 936.913 257.174C936.913 258 936.71 258.756 936.304 259.442C935.898 260.128 935.282 260.674 934.456 261.08C933.644 261.472 932.608 261.668 931.348 261.668Z" fill="#404040"/>
<path d="M1173.33 350.5V335.8H1175.43V350.5H1173.33ZM1183.36 350.626C1182.24 350.626 1181.37 350.325 1180.75 349.723C1180.14 349.121 1179.83 348.26 1179.83 347.14V336.934H1181.84V347.056C1181.84 347.658 1181.99 348.12 1182.28 348.442C1182.59 348.764 1183.03 348.925 1183.59 348.925C1184.22 348.925 1184.74 348.75 1185.16 348.4L1185.79 349.849C1185.48 350.115 1185.11 350.311 1184.68 350.437C1184.26 350.563 1183.82 350.626 1183.36 350.626ZM1177.94 341.029V339.37H1185.04V341.029H1177.94ZM1192.82 350.626C1191.63 350.626 1190.58 350.381 1189.67 349.891C1188.77 349.401 1188.07 348.729 1187.57 347.875C1187.08 347.021 1186.83 346.041 1186.83 344.935C1186.83 343.829 1187.07 342.849 1187.54 341.995C1188.03 341.141 1188.7 340.476 1189.54 340C1190.39 339.51 1191.35 339.265 1192.42 339.265C1193.49 339.265 1194.45 339.503 1195.27 339.979C1196.1 340.455 1196.74 341.127 1197.2 341.995C1197.68 342.849 1197.92 343.85 1197.92 344.998C1197.92 345.082 1197.91 345.18 1197.9 345.292C1197.9 345.404 1197.89 345.509 1197.88 345.607H1188.41V344.158H1196.83L1196.01 344.662C1196.02 343.948 1195.87 343.311 1195.57 342.751C1195.26 342.191 1194.83 341.757 1194.29 341.449C1193.75 341.127 1193.13 340.966 1192.42 340.966C1191.72 340.966 1191.09 341.127 1190.55 341.449C1190 341.757 1189.57 342.198 1189.27 342.772C1188.96 343.332 1188.8 343.976 1188.8 344.704V345.04C1188.8 345.782 1188.97 346.447 1189.31 347.035C1189.66 347.609 1190.14 348.057 1190.76 348.379C1191.37 348.701 1192.08 348.862 1192.88 348.862C1193.54 348.862 1194.13 348.75 1194.66 348.526C1195.21 348.302 1195.69 347.966 1196.09 347.518L1197.2 348.82C1196.7 349.408 1196.07 349.856 1195.31 350.164C1194.57 350.472 1193.74 350.626 1192.82 350.626ZM1200.72 350.5V339.37H1202.65V342.394L1202.46 341.638C1202.77 340.868 1203.29 340.28 1204.01 339.874C1204.74 339.468 1205.64 339.265 1206.7 339.265V341.218C1206.62 341.204 1206.53 341.197 1206.45 341.197C1206.38 341.197 1206.31 341.197 1206.24 341.197C1205.16 341.197 1204.31 341.519 1203.68 342.163C1203.05 342.807 1202.73 343.738 1202.73 344.956V350.5H1200.72ZM1215.28 350.5V348.148L1215.17 347.707V343.696C1215.17 342.842 1214.92 342.184 1214.42 341.722C1213.93 341.246 1213.18 341.008 1212.19 341.008C1211.53 341.008 1210.89 341.12 1210.26 341.344C1209.63 341.554 1209.1 341.841 1208.66 342.205L1207.82 340.693C1208.4 340.231 1209.08 339.881 1209.88 339.643C1210.69 339.391 1211.54 339.265 1212.42 339.265C1213.95 339.265 1215.12 339.636 1215.95 340.378C1216.77 341.12 1217.19 342.254 1217.19 343.78V350.5H1215.28ZM1211.62 350.626C1210.8 350.626 1210.07 350.486 1209.44 350.206C1208.82 349.926 1208.35 349.541 1208.01 349.051C1207.67 348.547 1207.51 347.98 1207.51 347.35C1207.51 346.748 1207.65 346.202 1207.93 345.712C1208.22 345.222 1208.69 344.83 1209.33 344.536C1209.99 344.242 1210.87 344.095 1211.98 344.095H1215.51V345.544H1212.06C1211.06 345.544 1210.38 345.712 1210.03 346.048C1209.68 346.384 1209.5 346.79 1209.5 347.266C1209.5 347.812 1209.72 348.253 1210.15 348.589C1210.59 348.911 1211.19 349.072 1211.96 349.072C1212.71 349.072 1213.37 348.904 1213.93 348.568C1214.51 348.232 1214.92 347.742 1215.17 347.098L1215.57 348.484C1215.3 349.142 1214.84 349.667 1214.16 350.059C1213.49 350.437 1212.64 350.626 1211.62 350.626ZM1224.74 350.626C1223.62 350.626 1222.75 350.325 1222.14 349.723C1221.52 349.121 1221.21 348.26 1221.21 347.14V336.934H1223.23V347.056C1223.23 347.658 1223.37 348.12 1223.67 348.442C1223.98 348.764 1224.41 348.925 1224.97 348.925C1225.6 348.925 1226.13 348.75 1226.55 348.4L1227.18 349.849C1226.87 350.115 1226.5 350.311 1226.06 350.437C1225.64 350.563 1225.2 350.626 1224.74 350.626ZM1219.32 341.029V339.37H1226.42V341.029H1219.32ZM1229.61 350.5V339.37H1231.63V350.5H1229.61ZM1230.62 337.228C1230.23 337.228 1229.9 337.102 1229.63 336.85C1229.38 336.598 1229.26 336.29 1229.26 335.926C1229.26 335.548 1229.38 335.233 1229.63 334.981C1229.9 334.729 1230.23 334.603 1230.62 334.603C1231.01 334.603 1231.34 334.729 1231.59 334.981C1231.85 335.219 1231.99 335.52 1231.99 335.884C1231.99 336.262 1231.86 336.584 1231.61 336.85C1231.36 337.102 1231.03 337.228 1230.62 337.228ZM1240.25 350.626C1239.13 350.626 1238.13 350.381 1237.26 349.891C1236.4 349.401 1235.71 348.729 1235.21 347.875C1234.7 347.007 1234.45 346.027 1234.45 344.935C1234.45 343.829 1234.7 342.849 1235.21 341.995C1235.71 341.141 1236.4 340.476 1237.26 340C1238.13 339.51 1239.13 339.265 1240.25 339.265C1241.35 339.265 1242.34 339.51 1243.21 340C1244.09 340.476 1244.77 341.141 1245.26 341.995C1245.77 342.835 1246.02 343.815 1246.02 344.935C1246.02 346.041 1245.77 347.021 1245.26 347.875C1244.77 348.729 1244.09 349.401 1243.21 349.891C1242.34 350.381 1241.35 350.626 1240.25 350.626ZM1240.25 348.862C1240.96 348.862 1241.6 348.701 1242.16 348.379C1242.73 348.057 1243.18 347.602 1243.5 347.014C1243.82 346.412 1243.98 345.719 1243.98 344.935C1243.98 344.137 1243.82 343.451 1243.5 342.877C1243.18 342.289 1242.73 341.834 1242.16 341.512C1241.6 341.19 1240.96 341.029 1240.25 341.029C1239.53 341.029 1238.89 341.19 1238.33 341.512C1237.77 341.834 1237.33 342.289 1236.99 342.877C1236.65 343.451 1236.49 344.137 1236.49 344.935C1236.49 345.719 1236.65 346.412 1236.99 347.014C1237.33 347.602 1237.77 348.057 1238.33 348.379C1238.89 348.701 1239.53 348.862 1240.25 348.862ZM1254.75 339.265C1255.66 339.265 1256.46 339.44 1257.15 339.79C1257.85 340.14 1258.39 340.672 1258.78 341.386C1259.18 342.1 1259.37 343.003 1259.37 344.095V350.5H1257.36V344.326C1257.36 343.248 1257.09 342.436 1256.56 341.89C1256.04 341.344 1255.3 341.071 1254.35 341.071C1253.64 341.071 1253.02 341.211 1252.48 341.491C1251.95 341.771 1251.54 342.184 1251.24 342.73C1250.96 343.276 1250.82 343.955 1250.82 344.767V350.5H1248.81V339.37H1250.74V342.373L1250.43 341.575C1250.79 340.847 1251.35 340.28 1252.11 339.874C1252.86 339.468 1253.74 339.265 1254.75 339.265ZM1267.63 346.888V345.418L1275.15 335.8H1277.42L1269.96 345.418L1268.89 345.082H1280.63V346.888H1267.63ZM1275.8 350.5V346.888L1275.86 345.082V341.89H1277.84V350.5H1275.8Z" fill="#404040"/>
<path d="M146.596 412L158.504 393.8H161.078L165.68 412H163.106L159.05 395.204H160.09L149.404 412H146.596ZM151.016 407.45L152.16 405.37H162.378L162.742 407.45H151.016ZM173.653 412.156C172.474 412.156 171.478 411.913 170.663 411.428C169.866 410.943 169.302 410.241 168.973 409.322C168.644 408.386 168.609 407.259 168.869 405.942L170.403 398.22H172.899L171.365 405.968C171.122 407.199 171.244 408.169 171.729 408.88C172.232 409.573 173.116 409.92 174.381 409.92C175.681 409.92 176.773 409.556 177.657 408.828C178.541 408.1 179.13 406.999 179.425 405.526L180.881 398.22H183.377L180.647 412H178.255L179.035 408.048L179.477 409.114C178.836 410.154 178.004 410.925 176.981 411.428C175.976 411.913 174.866 412.156 173.653 412.156ZM190.131 412.156C189.299 412.156 188.579 411.974 187.973 411.61C187.383 411.246 186.959 410.726 186.699 410.05C186.456 409.374 186.421 408.577 186.595 407.658L189.091 395.204H191.587L189.091 407.606C188.969 408.351 189.039 408.949 189.299 409.4C189.576 409.833 190.087 410.05 190.833 410.05C191.179 410.05 191.526 409.998 191.873 409.894C192.219 409.773 192.531 409.608 192.809 409.4L193.329 411.298C192.861 411.627 192.341 411.853 191.769 411.974C191.214 412.095 190.668 412.156 190.131 412.156ZM185.737 400.274L186.127 398.22H194.941L194.525 400.274H185.737ZM202.155 412.156C200.838 412.156 199.694 411.913 198.723 411.428C197.77 410.925 197.025 410.232 196.487 409.348C195.95 408.447 195.681 407.398 195.681 406.202C195.681 404.642 196.028 403.255 196.721 402.042C197.415 400.811 198.368 399.849 199.581 399.156C200.812 398.445 202.207 398.09 203.767 398.09C205.067 398.09 206.203 398.333 207.173 398.818C208.144 399.303 208.889 399.988 209.409 400.872C209.947 401.756 210.215 402.805 210.215 404.018C210.215 405.578 209.869 406.973 209.175 408.204C208.482 409.417 207.529 410.379 206.315 411.09C205.119 411.801 203.733 412.156 202.155 412.156ZM202.311 409.972C203.351 409.972 204.279 409.721 205.093 409.218C205.908 408.715 206.541 408.031 206.991 407.164C207.459 406.28 207.693 405.275 207.693 404.148C207.693 402.935 207.338 401.99 206.627 401.314C205.917 400.621 204.903 400.274 203.585 400.274C202.563 400.274 201.644 400.525 200.829 401.028C200.015 401.513 199.373 402.198 198.905 403.082C198.437 403.949 198.203 404.954 198.203 406.098C198.203 407.294 198.559 408.239 199.269 408.932C199.98 409.625 200.994 409.972 202.311 409.972ZM231.815 398.09C233.046 398.09 234.06 398.333 234.857 398.818C235.655 399.303 236.209 400.014 236.521 400.95C236.851 401.869 236.877 402.978 236.599 404.278L235.065 412H232.569L234.103 404.278C234.363 403.03 234.251 402.059 233.765 401.366C233.297 400.673 232.439 400.326 231.191 400.326C229.926 400.326 228.877 400.681 228.045 401.392C227.213 402.103 226.65 403.186 226.355 404.642L224.873 412H222.377L223.937 404.278C224.18 403.03 224.059 402.059 223.573 401.366C223.105 400.673 222.247 400.326 220.999 400.326C219.734 400.326 218.685 400.69 217.853 401.418C217.021 402.129 216.458 403.229 216.163 404.72L214.707 412H212.211L214.941 398.22H217.333L216.553 402.172L216.085 401.106C216.727 400.066 217.533 399.303 218.503 398.818C219.491 398.333 220.583 398.09 221.779 398.09C222.715 398.09 223.53 398.246 224.223 398.558C224.917 398.87 225.463 399.338 225.861 399.962C226.277 400.569 226.52 401.305 226.589 402.172L225.237 401.912C225.948 400.629 226.858 399.676 227.967 399.052C229.094 398.411 230.377 398.09 231.815 398.09ZM245.742 412.156C244.581 412.156 243.541 411.922 242.622 411.454C241.703 410.969 240.975 410.284 240.438 409.4C239.918 408.516 239.658 407.45 239.658 406.202C239.658 405.023 239.849 403.94 240.23 402.952C240.629 401.964 241.175 401.106 241.868 400.378C242.579 399.65 243.411 399.087 244.364 398.688C245.317 398.289 246.349 398.09 247.458 398.09C248.654 398.09 249.668 398.298 250.5 398.714C251.332 399.13 251.973 399.745 252.424 400.56C252.875 401.357 253.1 402.337 253.1 403.498C253.1 405.197 252.805 406.705 252.216 408.022C251.627 409.322 250.777 410.336 249.668 411.064C248.576 411.792 247.267 412.156 245.742 412.156ZM246.288 409.972C247.328 409.972 248.255 409.721 249.07 409.218C249.885 408.715 250.517 408.031 250.968 407.164C251.436 406.28 251.67 405.275 251.67 404.148C251.67 402.935 251.315 401.99 250.604 401.314C249.893 400.621 248.879 400.274 247.562 400.274C246.539 400.274 245.621 400.525 244.806 401.028C243.991 401.513 243.35 402.198 242.882 403.082C242.414 403.949 242.18 404.954 242.18 406.098C242.18 407.294 242.535 408.239 243.246 408.932C243.957 409.625 244.971 409.972 246.288 409.972ZM250.266 412L250.994 408.438L251.826 405.24L252.164 401.964L252.892 398.22H255.388L252.658 412H250.266ZM262.139 412.156C261.307 412.156 260.587 411.974 259.981 411.61C259.391 411.246 258.967 410.726 258.707 410.05C258.464 409.374 258.429 408.577 258.603 407.658L261.099 395.204H263.595L261.099 407.606C260.977 408.351 261.047 408.949 261.307 409.4C261.584 409.833 262.095 410.05 262.841 410.05C263.187 410.05 263.534 409.998 263.881 409.894C264.227 409.773 264.539 409.608 264.817 409.4L265.337 411.298C264.869 411.627 264.349 411.853 263.777 411.974C263.222 412.095 262.676 412.156 262.139 412.156ZM257.745 400.274L258.135 398.22H266.949L266.533 400.274H257.745ZM274.293 412.156C272.941 412.156 271.771 411.913 270.783 411.428C269.795 410.925 269.033 410.232 268.495 409.348C267.958 408.447 267.689 407.389 267.689 406.176C267.689 404.616 268.027 403.229 268.703 402.016C269.379 400.803 270.298 399.849 271.459 399.156C272.638 398.445 273.973 398.09 275.463 398.09C276.711 398.09 277.795 398.333 278.713 398.818C279.632 399.286 280.343 399.962 280.845 400.846C281.365 401.73 281.625 402.796 281.625 404.044C281.625 404.356 281.608 404.677 281.573 405.006C281.539 405.318 281.495 405.613 281.443 405.89H269.509L269.821 404.07H280.247L279.233 404.694C279.389 403.723 279.32 402.909 279.025 402.25C278.731 401.574 278.263 401.063 277.621 400.716C276.997 400.352 276.243 400.17 275.359 400.17C274.319 400.17 273.401 400.421 272.603 400.924C271.823 401.409 271.217 402.094 270.783 402.978C270.35 403.845 270.133 404.867 270.133 406.046C270.133 407.294 270.489 408.265 271.199 408.958C271.927 409.634 273.028 409.972 274.501 409.972C275.368 409.972 276.174 409.833 276.919 409.556C277.665 409.261 278.28 408.871 278.765 408.386L279.831 410.18C279.173 410.821 278.349 411.315 277.361 411.662C276.373 411.991 275.351 412.156 274.293 412.156ZM289.668 412.156C288.506 412.156 287.466 411.922 286.548 411.454C285.629 410.969 284.901 410.284 284.364 409.4C283.844 408.516 283.584 407.45 283.584 406.202C283.584 405.023 283.774 403.94 284.156 402.952C284.554 401.964 285.1 401.106 285.794 400.378C286.504 399.65 287.336 399.087 288.29 398.688C289.243 398.289 290.274 398.09 291.384 398.09C292.58 398.09 293.594 398.298 294.426 398.714C295.258 399.13 295.899 399.745 296.35 400.56C296.8 401.357 297.026 402.337 297.026 403.498C297.026 404.781 296.861 405.951 296.532 407.008C296.202 408.065 295.708 408.984 295.05 409.764C294.408 410.527 293.637 411.116 292.736 411.532C291.834 411.948 290.812 412.156 289.668 412.156ZM290.214 409.972C291.254 409.972 292.181 409.721 292.996 409.218C293.81 408.715 294.443 408.031 294.894 407.164C295.362 406.28 295.596 405.275 295.596 404.148C295.596 402.935 295.24 401.99 294.53 401.314C293.819 400.621 292.805 400.274 291.488 400.274C290.465 400.274 289.546 400.525 288.732 401.028C287.917 401.513 287.276 402.198 286.808 403.082C286.34 403.949 286.106 404.954 286.106 406.098C286.106 407.294 286.461 408.239 287.172 408.932C287.882 409.625 288.896 409.972 290.214 409.972ZM294.192 412L294.92 408.438L295.726 405.24L296.09 401.964L297.936 392.708H300.432L296.584 412H294.192ZM308.315 412L312.163 392.708H314.659L310.811 412H308.315ZM321.635 412.156C320.473 412.156 319.433 411.922 318.515 411.454C317.596 410.969 316.868 410.284 316.331 409.4C315.811 408.516 315.551 407.45 315.551 406.202C315.551 405.023 315.741 403.94 316.123 402.952C316.521 401.964 317.067 401.106 317.761 400.378C318.471 399.65 319.303 399.087 320.257 398.688C321.21 398.289 322.241 398.09 323.351 398.09C324.547 398.09 325.561 398.298 326.393 398.714C327.225 399.13 327.866 399.745 328.317 400.56C328.767 401.357 328.993 402.337 328.993 403.498C328.993 405.197 328.698 406.705 328.109 408.022C327.519 409.322 326.67 410.336 325.561 411.064C324.469 411.792 323.16 412.156 321.635 412.156ZM322.181 409.972C323.221 409.972 324.148 409.721 324.963 409.218C325.777 408.715 326.41 408.031 326.861 407.164C327.329 406.28 327.562 405.275 327.562 404.148C327.562 402.935 327.207 401.99 326.497 401.314C325.786 400.621 324.772 400.274 323.455 400.274C322.432 400.274 321.513 400.525 320.699 401.028C319.884 401.513 319.243 402.198 318.775 403.082C318.307 403.949 318.073 404.954 318.073 406.098C318.073 407.294 318.428 408.239 319.139 408.932C319.849 409.625 320.863 409.972 322.181 409.972ZM326.159 412L326.887 408.438L327.719 405.24L328.057 401.964L328.785 398.22H331.281L328.551 412H326.159ZM333.299 412L337.147 392.708H339.643L337.797 401.834L336.887 404.98L336.497 407.944L335.665 412H333.299ZM341.229 412.156C340.05 412.156 339.036 411.948 338.187 411.532C337.355 411.099 336.714 410.483 336.263 409.686C335.812 408.871 335.587 407.892 335.587 406.748C335.587 405.465 335.752 404.295 336.081 403.238C336.41 402.163 336.896 401.245 337.537 400.482C338.196 399.719 338.976 399.13 339.877 398.714C340.778 398.298 341.801 398.09 342.945 398.09C344.124 398.09 345.164 398.324 346.065 398.792C346.984 399.26 347.703 399.945 348.223 400.846C348.76 401.73 349.029 402.787 349.029 404.018C349.029 405.197 348.83 406.28 348.431 407.268C348.05 408.256 347.504 409.114 346.793 409.842C346.1 410.57 345.276 411.142 344.323 411.558C343.37 411.957 342.338 412.156 341.229 412.156ZM341.125 409.972C342.165 409.972 343.084 409.721 343.881 409.218C344.696 408.715 345.337 408.031 345.805 407.164C346.273 406.28 346.507 405.275 346.507 404.148C346.507 402.935 346.152 401.99 345.441 401.314C344.73 400.621 343.716 400.274 342.399 400.274C341.376 400.274 340.449 400.525 339.617 401.028C338.802 401.513 338.161 402.198 337.693 403.082C337.242 403.949 337.017 404.954 337.017 406.098C337.017 407.294 337.372 408.239 338.083 408.932C338.794 409.625 339.808 409.972 341.125 409.972ZM357.6 412.156C356.248 412.156 355.078 411.913 354.09 411.428C353.102 410.925 352.339 410.232 351.802 409.348C351.264 408.447 350.996 407.389 350.996 406.176C350.996 404.616 351.334 403.229 352.01 402.016C352.686 400.803 353.604 399.849 354.766 399.156C355.944 398.445 357.279 398.09 358.77 398.09C360.018 398.09 361.101 398.333 362.02 398.818C362.938 399.286 363.649 399.962 364.152 400.846C364.672 401.73 364.932 402.796 364.932 404.044C364.932 404.356 364.914 404.677 364.88 405.006C364.845 405.318 364.802 405.613 364.75 405.89H352.816L353.128 404.07H363.554L362.54 404.694C362.696 403.723 362.626 402.909 362.332 402.25C362.037 401.574 361.569 401.063 360.928 400.716C360.304 400.352 359.55 400.17 358.666 400.17C357.626 400.17 356.707 400.421 355.91 400.924C355.13 401.409 354.523 402.094 354.09 402.978C353.656 403.845 353.44 404.867 353.44 406.046C353.44 407.294 353.795 408.265 354.506 408.958C355.234 409.634 356.334 409.972 357.808 409.972C358.674 409.972 359.48 409.833 360.226 409.556C360.971 409.261 361.586 408.871 362.072 408.386L363.138 410.18C362.479 410.821 361.656 411.315 360.668 411.662C359.68 411.991 358.657 412.156 357.6 412.156ZM366.916 412L370.764 392.708H373.26L369.412 412H366.916ZM374.178 412L376.908 398.22H379.404L376.674 412H374.178ZM378.884 395.568C378.416 395.568 378.035 395.421 377.74 395.126C377.463 394.831 377.324 394.476 377.324 394.06C377.324 393.575 377.489 393.167 377.818 392.838C378.147 392.491 378.581 392.318 379.118 392.318C379.569 392.318 379.941 392.465 380.236 392.76C380.548 393.037 380.704 393.375 380.704 393.774C380.704 394.311 380.539 394.745 380.21 395.074C379.881 395.403 379.439 395.568 378.884 395.568ZM391.216 398.09C392.429 398.09 393.443 398.333 394.258 398.818C395.072 399.303 395.636 400.014 395.948 400.95C396.277 401.869 396.312 402.978 396.052 404.278L394.518 412H392.022L393.556 404.278C393.816 403.03 393.694 402.059 393.192 401.366C392.689 400.673 391.788 400.326 390.488 400.326C389.153 400.326 388.044 400.69 387.16 401.418C386.276 402.129 385.686 403.229 385.392 404.72L383.936 412H381.44L384.17 398.22H386.562L385.782 402.172L385.314 401.106C385.972 400.066 386.804 399.303 387.81 398.818C388.832 398.333 389.968 398.09 391.216 398.09ZM404.441 417.2C403.141 417.2 401.954 417.027 400.879 416.68C399.804 416.351 398.894 415.874 398.149 415.25L399.527 413.326C400.064 413.829 400.775 414.227 401.659 414.522C402.56 414.834 403.548 414.99 404.623 414.99C406.252 414.99 407.5 414.617 408.367 413.872C409.234 413.144 409.814 412.026 410.109 410.518L410.759 407.32L411.539 404.746L411.929 401.99L412.683 398.22H415.049L412.683 410.128C412.18 412.624 411.253 414.427 409.901 415.536C408.549 416.645 406.729 417.2 404.441 417.2ZM405.325 411.428C404.129 411.428 403.063 411.203 402.127 410.752C401.208 410.301 400.489 409.66 399.969 408.828C399.449 407.979 399.189 406.973 399.189 405.812C399.189 404.703 399.38 403.689 399.761 402.77C400.16 401.834 400.706 401.019 401.399 400.326C402.092 399.615 402.916 399.069 403.869 398.688C404.84 398.289 405.897 398.09 407.041 398.09C408.081 398.09 409.026 398.272 409.875 398.636C410.742 399 411.426 399.563 411.929 400.326C412.449 401.071 412.709 402.042 412.709 403.238C412.726 404.763 412.44 406.15 411.851 407.398C411.262 408.629 410.412 409.608 409.303 410.336C408.211 411.064 406.885 411.428 405.325 411.428ZM405.819 409.244C406.876 409.244 407.804 409.01 408.601 408.542C409.416 408.074 410.057 407.433 410.525 406.618C410.993 405.803 411.227 404.876 411.227 403.836C411.227 402.727 410.863 401.86 410.135 401.236C409.424 400.595 408.419 400.274 407.119 400.274C406.062 400.274 405.126 400.508 404.311 400.976C403.514 401.427 402.881 402.059 402.413 402.874C401.945 403.689 401.711 404.616 401.711 405.656C401.711 406.783 402.075 407.667 402.803 408.308C403.531 408.932 404.536 409.244 405.819 409.244ZM149.014 452L151.744 438.22H154.136L153.356 442.224L153.096 441.236C153.737 440.075 154.552 439.26 155.54 438.792C156.528 438.324 157.75 438.09 159.206 438.09L158.738 440.508C158.634 440.491 158.53 440.482 158.426 440.482C158.322 440.482 158.209 440.482 158.088 440.482C156.719 440.482 155.583 440.855 154.682 441.6C153.798 442.345 153.2 443.515 152.888 445.11L151.51 452H149.014ZM165.951 452.156C164.599 452.156 163.429 451.913 162.441 451.428C161.453 450.925 160.691 450.232 160.153 449.348C159.616 448.447 159.347 447.389 159.347 446.176C159.347 444.616 159.685 443.229 160.361 442.016C161.037 440.803 161.956 439.849 163.117 439.156C164.296 438.445 165.631 438.09 167.121 438.09C168.369 438.09 169.453 438.333 170.371 438.818C171.29 439.286 172.001 439.962 172.503 440.846C173.023 441.73 173.283 442.796 173.283 444.044C173.283 444.356 173.266 444.677 173.231 445.006C173.197 445.318 173.153 445.613 173.101 445.89H161.167L161.479 444.07H171.905L170.891 444.694C171.047 443.723 170.978 442.909 170.683 442.25C170.389 441.574 169.921 441.063 169.279 440.716C168.655 440.352 167.901 440.17 167.017 440.17C165.977 440.17 165.059 440.421 164.261 440.924C163.481 441.409 162.875 442.094 162.441 442.978C162.008 443.845 161.791 444.867 161.791 446.046C161.791 447.294 162.147 448.265 162.857 448.958C163.585 449.634 164.686 449.972 166.159 449.972C167.026 449.972 167.832 449.833 168.577 449.556C169.323 449.261 169.938 448.871 170.423 448.386L171.489 450.18C170.831 450.821 170.007 451.315 169.019 451.662C168.031 451.991 167.009 452.156 165.951 452.156ZM181.326 452.156C180.165 452.156 179.125 451.922 178.206 451.454C177.287 450.969 176.559 450.284 176.022 449.4C175.502 448.516 175.242 447.45 175.242 446.202C175.242 445.023 175.433 443.94 175.814 442.952C176.213 441.964 176.759 441.106 177.452 440.378C178.163 439.65 178.995 439.087 179.948 438.688C180.901 438.289 181.933 438.09 183.042 438.09C184.238 438.09 185.252 438.298 186.084 438.714C186.916 439.13 187.557 439.745 188.008 440.56C188.459 441.357 188.684 442.337 188.684 443.498C188.684 444.781 188.519 445.951 188.19 447.008C187.861 448.065 187.367 448.984 186.708 449.764C186.067 450.527 185.295 451.116 184.394 451.532C183.493 451.948 182.47 452.156 181.326 452.156ZM181.872 449.972C182.912 449.972 183.839 449.721 184.654 449.218C185.469 448.715 186.101 448.031 186.552 447.164C187.02 446.28 187.254 445.275 187.254 444.148C187.254 442.935 186.899 441.99 186.188 441.314C185.477 440.621 184.463 440.274 183.146 440.274C182.123 440.274 181.205 440.525 180.39 441.028C179.575 441.513 178.934 442.198 178.466 443.082C177.998 443.949 177.764 444.954 177.764 446.098C177.764 447.294 178.119 448.239 178.83 448.932C179.541 449.625 180.555 449.972 181.872 449.972ZM185.85 452L186.578 448.438L187.384 445.24L187.748 441.964L189.594 432.708H192.09L188.242 452H185.85ZM198.841 452.156C197.662 452.156 196.665 451.913 195.851 451.428C195.053 450.943 194.49 450.241 194.161 449.322C193.831 448.386 193.797 447.259 194.057 445.942L195.591 438.22H198.087L196.553 445.968C196.31 447.199 196.431 448.169 196.917 448.88C197.419 449.573 198.303 449.92 199.569 449.92C200.869 449.92 201.961 449.556 202.845 448.828C203.729 448.1 204.318 446.999 204.613 445.526L206.069 438.22H208.565L205.835 452H203.443L204.223 448.048L204.665 449.114C204.023 450.154 203.191 450.925 202.169 451.428C201.163 451.913 200.054 452.156 198.841 452.156ZM217.112 452.156C215.778 452.156 214.616 451.913 213.628 451.428C212.658 450.925 211.904 450.232 211.366 449.348C210.829 448.447 210.56 447.398 210.56 446.202C210.56 444.642 210.907 443.255 211.6 442.042C212.294 440.811 213.256 439.849 214.486 439.156C215.717 438.445 217.112 438.09 218.672 438.09C220.007 438.09 221.151 438.341 222.104 438.844C223.058 439.329 223.803 440.075 224.34 441.08L222.234 442.25C221.888 441.574 221.394 441.08 220.752 440.768C220.128 440.439 219.374 440.274 218.49 440.274C217.45 440.274 216.523 440.525 215.708 441.028C214.894 441.513 214.252 442.198 213.784 443.082C213.316 443.949 213.082 444.954 213.082 446.098C213.082 447.294 213.438 448.239 214.148 448.932C214.876 449.625 215.899 449.972 217.216 449.972C218.031 449.972 218.794 449.807 219.504 449.478C220.232 449.149 220.839 448.663 221.324 448.022L223.144 449.322C222.52 450.206 221.671 450.899 220.596 451.402C219.522 451.905 218.36 452.156 217.112 452.156ZM231.815 452.156C230.463 452.156 229.293 451.913 228.305 451.428C227.317 450.925 226.554 450.232 226.017 449.348C225.479 448.447 225.211 447.389 225.211 446.176C225.211 444.616 225.549 443.229 226.225 442.016C226.901 440.803 227.819 439.849 228.981 439.156C230.159 438.445 231.494 438.09 232.985 438.09C234.233 438.09 235.316 438.333 236.235 438.818C237.153 439.286 237.864 439.962 238.367 440.846C238.887 441.73 239.147 442.796 239.147 444.044C239.147 444.356 239.129 444.677 239.095 445.006C239.06 445.318 239.017 445.613 238.965 445.89H227.031L227.343 444.07H237.769L236.755 444.694C236.911 443.723 236.841 442.909 236.547 442.25C236.252 441.574 235.784 441.063 235.143 440.716C234.519 440.352 233.765 440.17 232.881 440.17C231.841 440.17 230.922 440.421 230.125 440.924C229.345 441.409 228.738 442.094 228.305 442.978C227.871 443.845 227.655 444.867 227.655 446.046C227.655 447.294 228.01 448.265 228.721 448.958C229.449 449.634 230.549 449.972 232.023 449.972C232.889 449.972 233.695 449.833 234.441 449.556C235.186 449.261 235.801 448.871 236.287 448.386L237.353 450.18C236.694 450.821 235.871 451.315 234.883 451.662C233.895 451.991 232.872 452.156 231.815 452.156ZM245.473 452.156C244.312 452.156 243.211 452.009 242.171 451.714C241.149 451.402 240.36 451.021 239.805 450.57L240.923 448.594C241.461 449.01 242.154 449.348 243.003 449.608C243.87 449.868 244.771 449.998 245.707 449.998C246.903 449.998 247.805 449.816 248.411 449.452C249.018 449.088 249.321 448.594 249.321 447.97C249.321 447.519 249.139 447.181 248.775 446.956C248.411 446.713 247.935 446.531 247.345 446.41C246.773 446.271 246.158 446.141 245.499 446.02C244.841 445.881 244.225 445.691 243.653 445.448C243.081 445.205 242.605 444.859 242.223 444.408C241.859 443.94 241.677 443.325 241.677 442.562C241.677 441.643 241.937 440.855 242.457 440.196C242.977 439.52 243.705 439 244.641 438.636C245.577 438.272 246.669 438.09 247.917 438.09C248.819 438.09 249.703 438.203 250.569 438.428C251.453 438.636 252.173 438.939 252.727 439.338L251.739 441.314C251.167 440.915 250.526 440.638 249.815 440.482C249.105 440.309 248.394 440.222 247.683 440.222C246.522 440.222 245.647 440.421 245.057 440.82C244.468 441.201 244.173 441.687 244.173 442.276C244.173 442.727 244.355 443.082 244.719 443.342C245.083 443.585 245.551 443.775 246.123 443.914C246.713 444.053 247.328 444.191 247.969 444.33C248.628 444.451 249.243 444.633 249.815 444.876C250.405 445.101 250.881 445.439 251.245 445.89C251.609 446.323 251.791 446.921 251.791 447.684C251.791 448.637 251.523 449.452 250.985 450.128C250.465 450.787 249.729 451.289 248.775 451.636C247.822 451.983 246.721 452.156 245.473 452.156ZM267.717 452.156C266.365 452.156 265.195 451.913 264.207 451.428C263.219 450.925 262.456 450.232 261.919 449.348C261.382 448.447 261.113 447.389 261.113 446.176C261.113 444.616 261.451 443.229 262.127 442.016C262.803 440.803 263.722 439.849 264.883 439.156C266.062 438.445 267.396 438.09 268.887 438.09C270.135 438.09 271.218 438.333 272.137 438.818C273.056 439.286 273.766 439.962 274.269 440.846C274.789 441.73 275.049 442.796 275.049 444.044C275.049 444.356 275.032 444.677 274.997 445.006C274.962 445.318 274.919 445.613 274.867 445.89H262.933L263.245 444.07H273.671L272.657 444.694C272.813 443.723 272.744 442.909 272.449 442.25C272.154 441.574 271.686 441.063 271.045 440.716C270.421 440.352 269.667 440.17 268.783 440.17C267.743 440.17 266.824 440.421 266.027 440.924C265.247 441.409 264.64 442.094 264.207 442.978C263.774 443.845 263.557 444.867 263.557 446.046C263.557 447.294 263.912 448.265 264.623 448.958C265.351 449.634 266.452 449.972 267.925 449.972C268.792 449.972 269.598 449.833 270.343 449.556C271.088 449.261 271.704 448.871 272.189 448.386L273.255 450.18C272.596 450.821 271.773 451.315 270.785 451.662C269.797 451.991 268.774 452.156 267.717 452.156ZM277.372 452L280.414 436.92C280.691 435.533 281.254 434.459 282.104 433.696C282.97 432.933 284.106 432.552 285.51 432.552C286.082 432.552 286.619 432.63 287.122 432.786C287.642 432.925 288.066 433.133 288.396 433.41L287.356 435.256C286.87 434.823 286.255 434.606 285.51 434.606C284.764 434.606 284.166 434.814 283.716 435.23C283.282 435.646 282.979 436.279 282.806 437.128L282.416 438.922L282.286 439.962L279.868 452H277.372ZM277.372 440.274L277.762 438.22H286.576L286.16 440.274H277.372ZM286.791 452L289.833 436.92C290.111 435.533 290.674 434.459 291.523 433.696C292.39 432.933 293.525 432.552 294.929 432.552C295.501 432.552 296.039 432.63 296.541 432.786C297.061 432.925 297.486 433.133 297.815 433.41L296.775 435.256C296.29 434.823 295.675 434.606 294.929 434.606C294.184 434.606 293.586 434.814 293.135 435.23C292.702 435.646 292.399 436.279 292.225 437.128L291.835 438.922L291.705 439.962L289.287 452H286.791ZM286.791 440.274L287.181 438.22H295.995L295.579 440.274H286.791ZM301.864 452.156C300.547 452.156 299.403 451.913 298.432 451.428C297.479 450.925 296.734 450.232 296.196 449.348C295.659 448.447 295.39 447.398 295.39 446.202C295.39 444.642 295.737 443.255 296.43 442.042C297.124 440.811 298.077 439.849 299.29 439.156C300.521 438.445 301.916 438.09 303.476 438.09C304.776 438.09 305.912 438.333 306.882 438.818C307.853 439.303 308.598 439.988 309.118 440.872C309.656 441.756 309.924 442.805 309.924 444.018C309.924 445.578 309.578 446.973 308.884 448.204C308.191 449.417 307.238 450.379 306.024 451.09C304.828 451.801 303.442 452.156 301.864 452.156ZM302.02 449.972C303.06 449.972 303.988 449.721 304.802 449.218C305.617 448.715 306.25 448.031 306.7 447.164C307.168 446.28 307.402 445.275 307.402 444.148C307.402 442.935 307.047 441.99 306.336 441.314C305.626 440.621 304.612 440.274 303.294 440.274C302.272 440.274 301.353 440.525 300.538 441.028C299.724 441.513 299.082 442.198 298.614 443.082C298.146 443.949 297.912 444.954 297.912 446.098C297.912 447.294 298.268 448.239 298.978 448.932C299.689 449.625 300.703 449.972 302.02 449.972ZM311.92 452L314.65 438.22H317.042L316.262 442.224L316.002 441.236C316.644 440.075 317.458 439.26 318.446 438.792C319.434 438.324 320.656 438.09 322.112 438.09L321.644 440.508C321.54 440.491 321.436 440.482 321.332 440.482C321.228 440.482 321.116 440.482 320.994 440.482C319.625 440.482 318.49 440.855 317.588 441.6C316.704 442.345 316.106 443.515 315.794 445.11L314.416 452H311.92ZM327.697 452.156C326.865 452.156 326.146 451.974 325.539 451.61C324.95 451.246 324.525 450.726 324.265 450.05C324.023 449.374 323.988 448.577 324.161 447.658L326.657 435.204H329.153L326.657 447.606C326.536 448.351 326.605 448.949 326.865 449.4C327.143 449.833 327.654 450.05 328.399 450.05C328.746 450.05 329.093 449.998 329.439 449.894C329.786 449.773 330.098 449.608 330.375 449.4L330.895 451.298C330.427 451.627 329.907 451.853 329.335 451.974C328.781 452.095 328.235 452.156 327.697 452.156ZM323.303 440.274L323.693 438.22H332.507L332.091 440.274H323.303ZM343.781 452L341.155 438.22H343.417L345.731 450.7H344.561L351.685 438.22H353.817L356.183 450.7H355.013L362.059 438.22H364.425L356.703 452H354.259L351.945 440.612H352.699L346.173 452H343.781ZM364.149 452L366.879 438.22H369.375L366.645 452H364.149ZM368.855 435.568C368.387 435.568 368.005 435.421 367.711 435.126C367.433 434.831 367.295 434.476 367.295 434.06C367.295 433.575 367.459 433.167 367.789 432.838C368.118 432.491 368.551 432.318 369.089 432.318C369.539 432.318 369.912 432.465 370.207 432.76C370.519 433.037 370.675 433.375 370.675 433.774C370.675 434.311 370.51 434.745 370.181 435.074C369.851 435.403 369.409 435.568 368.855 435.568ZM376.142 452.156C375.31 452.156 374.591 451.974 373.984 451.61C373.395 451.246 372.97 450.726 372.71 450.05C372.468 449.374 372.433 448.577 372.606 447.658L375.102 435.204H377.598L375.102 447.606C374.981 448.351 375.05 448.949 375.31 449.4C375.588 449.833 376.099 450.05 376.844 450.05C377.191 450.05 377.538 449.998 377.884 449.894C378.231 449.773 378.543 449.608 378.82 449.4L379.34 451.298C378.872 451.627 378.352 451.853 377.78 451.974C377.226 452.095 376.68 452.156 376.142 452.156ZM371.748 440.274L372.138 438.22H380.952L380.536 440.274H371.748ZM391.952 438.09C393.165 438.09 394.179 438.333 394.994 438.818C395.809 439.303 396.372 440.014 396.684 440.95C397.013 441.869 397.048 442.978 396.788 444.278L395.254 452H392.758L394.292 444.278C394.552 443.03 394.431 442.059 393.928 441.366C393.425 440.673 392.524 440.326 391.224 440.326C389.889 440.326 388.78 440.69 387.896 441.418C387.012 442.129 386.423 443.229 386.128 444.72L384.672 452H382.176L386.024 432.708H388.52L386.622 442.172L386.05 441.106C386.709 440.066 387.541 439.303 388.546 438.818C389.569 438.333 390.704 438.09 391.952 438.09ZM155.592 492.156C154.24 492.156 153.07 491.913 152.082 491.428C151.094 490.925 150.331 490.232 149.794 489.348C149.257 488.447 148.988 487.389 148.988 486.176C148.988 484.616 149.326 483.229 150.002 482.016C150.678 480.803 151.597 479.849 152.758 479.156C153.937 478.445 155.271 478.09 156.762 478.09C158.01 478.09 159.093 478.333 160.012 478.818C160.931 479.286 161.641 479.962 162.144 480.846C162.664 481.73 162.924 482.796 162.924 484.044C162.924 484.356 162.907 484.677 162.872 485.006C162.837 485.318 162.794 485.613 162.742 485.89H150.808L151.12 484.07H161.546L160.532 484.694C160.688 483.723 160.619 482.909 160.324 482.25C160.029 481.574 159.561 481.063 158.92 480.716C158.296 480.352 157.542 480.17 156.658 480.17C155.618 480.17 154.699 480.421 153.902 480.924C153.122 481.409 152.515 482.094 152.082 482.978C151.649 483.845 151.432 484.867 151.432 486.046C151.432 487.294 151.787 488.265 152.498 488.958C153.226 489.634 154.327 489.972 155.8 489.972C156.667 489.972 157.473 489.833 158.218 489.556C158.963 489.261 159.579 488.871 160.064 488.386L161.13 490.18C160.471 490.821 159.648 491.315 158.66 491.662C157.672 491.991 156.649 492.156 155.592 492.156ZM168.269 492L164.967 478.22H167.463L170.375 490.7H169.127L177.057 478.22H179.579L170.817 492H168.269ZM185.375 492.156C184.023 492.156 182.853 491.913 181.865 491.428C180.877 490.925 180.115 490.232 179.577 489.348C179.04 488.447 178.771 487.389 178.771 486.176C178.771 484.616 179.109 483.229 179.785 482.016C180.461 480.803 181.38 479.849 182.541 479.156C183.72 478.445 185.055 478.09 186.545 478.09C187.793 478.09 188.877 478.333 189.795 478.818C190.714 479.286 191.425 479.962 191.927 480.846C192.447 481.73 192.707 482.796 192.707 484.044C192.707 484.356 192.69 484.677 192.655 485.006C192.621 485.318 192.577 485.613 192.525 485.89H180.591L180.903 484.07H191.329L190.315 484.694C190.471 483.723 190.402 482.909 190.107 482.25C189.813 481.574 189.345 481.063 188.703 480.716C188.079 480.352 187.325 480.17 186.441 480.17C185.401 480.17 184.483 480.421 183.685 480.924C182.905 481.409 182.299 482.094 181.865 482.978C181.432 483.845 181.215 484.867 181.215 486.046C181.215 487.294 181.571 488.265 182.281 488.958C183.009 489.634 184.11 489.972 185.583 489.972C186.45 489.972 187.256 489.833 188.001 489.556C188.747 489.261 189.362 488.871 189.847 488.386L190.913 490.18C190.255 490.821 189.431 491.315 188.443 491.662C187.455 491.991 186.433 492.156 185.375 492.156ZM194.692 492L197.422 478.22H199.814L199.034 482.224L198.774 481.236C199.415 480.075 200.23 479.26 201.218 478.792C202.206 478.324 203.428 478.09 204.884 478.09L204.416 480.508C204.312 480.491 204.208 480.482 204.104 480.482C204 480.482 203.887 480.482 203.766 480.482C202.396 480.482 201.261 480.855 200.36 481.6C199.476 482.345 198.878 483.515 198.566 485.11L197.188 492H194.692ZM205.529 497.2C204.87 497.2 204.22 497.087 203.579 496.862C202.937 496.654 202.435 496.359 202.071 495.978L203.371 494.132C203.665 494.427 204.012 494.652 204.411 494.808C204.792 494.981 205.225 495.068 205.711 495.068C206.283 495.068 206.794 494.912 207.245 494.6C207.713 494.305 208.189 493.777 208.675 493.014L209.975 491.012L210.261 490.726L218.139 478.22H220.661L210.885 493.508C210.278 494.444 209.706 495.181 209.169 495.718C208.631 496.255 208.068 496.637 207.479 496.862C206.907 497.087 206.257 497.2 205.529 497.2ZM209.507 492.442L206.049 478.22H208.545L211.483 490.492L209.507 492.442ZM227.243 492L229.973 478.22H232.469L229.739 492H227.243ZM231.949 475.568C231.481 475.568 231.099 475.421 230.805 475.126C230.527 474.831 230.389 474.476 230.389 474.06C230.389 473.575 230.553 473.167 230.883 472.838C231.212 472.491 231.645 472.318 232.183 472.318C232.633 472.318 233.006 472.465 233.301 472.76C233.613 473.037 233.769 473.375 233.769 473.774C233.769 474.311 233.604 474.745 233.275 475.074C232.945 475.403 232.503 475.568 231.949 475.568ZM239.236 492.156C238.404 492.156 237.685 491.974 237.078 491.61C236.489 491.246 236.064 490.726 235.804 490.05C235.562 489.374 235.527 488.577 235.7 487.658L238.196 475.204H240.692L238.196 487.606C238.075 488.351 238.144 488.949 238.404 489.4C238.682 489.833 239.193 490.05 239.938 490.05C240.285 490.05 240.632 489.998 240.978 489.894C241.325 489.773 241.637 489.608 241.914 489.4L242.434 491.298C241.966 491.627 241.446 491.853 240.874 491.974C240.32 492.095 239.774 492.156 239.236 492.156ZM234.842 480.274L235.232 478.22H244.046L243.63 480.274H234.842ZM251.391 492.156C250.039 492.156 248.869 491.913 247.881 491.428C246.893 490.925 246.13 490.232 245.593 489.348C245.055 488.447 244.787 487.389 244.787 486.176C244.787 484.616 245.125 483.229 245.801 482.016C246.477 480.803 247.395 479.849 248.557 479.156C249.735 478.445 251.07 478.09 252.561 478.09C253.809 478.09 254.892 478.333 255.811 478.818C256.729 479.286 257.44 479.962 257.943 480.846C258.463 481.73 258.723 482.796 258.723 484.044C258.723 484.356 258.705 484.677 258.671 485.006C258.636 485.318 258.593 485.613 258.541 485.89H246.607L246.919 484.07H257.345L256.331 484.694C256.487 483.723 256.417 482.909 256.123 482.25C255.828 481.574 255.36 481.063 254.719 480.716C254.095 480.352 253.341 480.17 252.457 480.17C251.417 480.17 250.498 480.421 249.701 480.924C248.921 481.409 248.314 482.094 247.881 482.978C247.447 483.845 247.231 484.867 247.231 486.046C247.231 487.294 247.586 488.265 248.297 488.958C249.025 489.634 250.125 489.972 251.599 489.972C252.465 489.972 253.271 489.833 254.017 489.556C254.762 489.261 255.377 488.871 255.863 488.386L256.929 490.18C256.27 490.821 255.447 491.315 254.459 491.662C253.471 491.991 252.448 492.156 251.391 492.156ZM260.707 492L263.437 478.22H265.829L265.049 482.224L264.789 481.236C265.431 480.075 266.245 479.26 267.233 478.792C268.221 478.324 269.443 478.09 270.899 478.09L270.431 480.508C270.327 480.491 270.223 480.482 270.119 480.482C270.015 480.482 269.903 480.482 269.781 480.482C268.412 480.482 267.277 480.855 266.375 481.6C265.491 482.345 264.893 483.515 264.581 485.11L263.203 492H260.707ZM277.125 492.156C275.963 492.156 274.923 491.922 274.005 491.454C273.086 490.969 272.358 490.284 271.821 489.4C271.301 488.516 271.041 487.45 271.041 486.202C271.041 485.023 271.231 483.94 271.613 482.952C272.011 481.964 272.557 481.106 273.251 480.378C273.961 479.65 274.793 479.087 275.747 478.688C276.7 478.289 277.731 478.09 278.841 478.09C280.037 478.09 281.051 478.298 281.883 478.714C282.715 479.13 283.356 479.745 283.807 480.56C284.257 481.357 284.483 482.337 284.483 483.498C284.483 485.197 284.188 486.705 283.599 488.022C283.009 489.322 282.16 490.336 281.051 491.064C279.959 491.792 278.65 492.156 277.125 492.156ZM277.671 489.972C278.711 489.972 279.638 489.721 280.453 489.218C281.267 488.715 281.9 488.031 282.351 487.164C282.819 486.28 283.053 485.275 283.053 484.148C283.053 482.935 282.697 481.99 281.987 481.314C281.276 480.621 280.262 480.274 278.945 480.274C277.922 480.274 277.003 480.525 276.189 481.028C275.374 481.513 274.733 482.198 274.265 483.082C273.797 483.949 273.563 484.954 273.563 486.098C273.563 487.294 273.918 488.239 274.629 488.932C275.339 489.625 276.353 489.972 277.671 489.972ZM281.649 492L282.377 488.438L283.209 485.24L283.547 481.964L284.275 478.22H286.771L284.041 492H281.649ZM293.521 492.156C292.689 492.156 291.97 491.974 291.363 491.61C290.774 491.246 290.349 490.726 290.089 490.05C289.847 489.374 289.812 488.577 289.985 487.658L292.481 475.204H294.977L292.481 487.606C292.36 488.351 292.429 488.949 292.689 489.4C292.967 489.833 293.478 490.05 294.223 490.05C294.57 490.05 294.917 489.998 295.263 489.894C295.61 489.773 295.922 489.608 296.199 489.4L296.719 491.298C296.251 491.627 295.731 491.853 295.159 491.974C294.605 492.095 294.059 492.156 293.521 492.156ZM289.127 480.274L289.517 478.22H298.331L297.915 480.274H289.127ZM299.555 492L302.285 478.22H304.781L302.051 492H299.555ZM304.261 475.568C303.793 475.568 303.412 475.421 303.117 475.126C302.84 474.831 302.701 474.476 302.701 474.06C302.701 473.575 302.866 473.167 303.195 472.838C303.524 472.491 303.958 472.318 304.495 472.318C304.946 472.318 305.318 472.465 305.613 472.76C305.925 473.037 306.081 473.375 306.081 473.774C306.081 474.311 305.916 474.745 305.587 475.074C305.258 475.403 304.816 475.568 304.261 475.568ZM313.265 492.156C311.947 492.156 310.803 491.913 309.833 491.428C308.879 490.925 308.134 490.232 307.597 489.348C307.059 488.447 306.791 487.398 306.791 486.202C306.791 484.642 307.137 483.255 307.831 482.042C308.524 480.811 309.477 479.849 310.691 479.156C311.921 478.445 313.317 478.09 314.877 478.09C316.177 478.09 317.312 478.333 318.283 478.818C319.253 479.303 319.999 479.988 320.519 480.872C321.056 481.756 321.325 482.805 321.325 484.018C321.325 485.578 320.978 486.973 320.285 488.204C319.591 489.417 318.638 490.379 317.425 491.09C316.229 491.801 314.842 492.156 313.265 492.156ZM313.421 489.972C314.461 489.972 315.388 489.721 316.203 489.218C317.017 488.715 317.65 488.031 318.101 487.164C318.569 486.28 318.803 485.275 318.803 484.148C318.803 482.935 318.447 481.99 317.737 481.314C317.026 480.621 316.012 480.274 314.695 480.274C313.672 480.274 312.753 480.525 311.939 481.028C311.124 481.513 310.483 482.198 310.015 483.082C309.547 483.949 309.313 484.954 309.313 486.098C309.313 487.294 309.668 488.239 310.379 488.932C311.089 489.625 312.103 489.972 313.421 489.972ZM333.097 478.09C334.31 478.09 335.324 478.333 336.139 478.818C336.953 479.303 337.517 480.014 337.829 480.95C338.158 481.869 338.193 482.978 337.933 484.278L336.399 492H333.903L335.437 484.278C335.697 483.03 335.575 482.059 335.073 481.366C334.57 480.673 333.669 480.326 332.369 480.326C331.034 480.326 329.925 480.69 329.041 481.418C328.157 482.129 327.567 483.229 327.273 484.72L325.817 492H323.321L326.051 478.22H328.443L327.663 482.172L327.195 481.106C327.853 480.066 328.685 479.303 329.691 478.818C330.713 478.333 331.849 478.09 333.097 478.09Z" fill="white"/>
</svg>
